<mxfile host="app.diagrams.net" modified="2021-02-16T13:39:41.837Z" agent="5.0 (Windows NT 10.0; Win64; x64) AppleWebKit/537.36 (KHTML, like Gecko) Chrome/88.0.4324.150 Safari/537.36" etag="eFjuTqPYUegSnTqxY3LZ" version="14.3.2" type="github">
  <diagram id="SMbD5pwBLaUoNuwdSUZN" name="Page-1">
    <mxGraphModel dx="1422" dy="762" grid="1" gridSize="10" guides="1" tooltips="1" connect="1" arrows="1" fold="1" page="1" pageScale="1" pageWidth="850" pageHeight="1100" math="0" shadow="0">
      <root>
        <mxCell id="0" />
        <mxCell id="1" parent="0" />
        <mxCell id="K24L0DZYHjiDjr_08N4e-1" value="&lt;font style=&quot;font-size: 30px&quot;&gt;堆（Heap）&lt;/font&gt;" style="swimlane;html=1;startSize=70;horizontal=1;containerType=tree;newEdgeStyle={&quot;edgeStyle&quot;:&quot;elbowEdgeStyle&quot;,&quot;startArrow&quot;:&quot;none&quot;,&quot;endArrow&quot;:&quot;none&quot;};" vertex="1" parent="1">
          <mxGeometry x="80" y="110" width="600" height="330" as="geometry" />
        </mxCell>
        <mxCell id="K24L0DZYHjiDjr_08N4e-7" value="Eden" style="rounded=0;whiteSpace=wrap;html=1;fillColor=#60a917;strokeColor=#2D7600;fontColor=#ffffff;fontSize=20;" vertex="1" parent="K24L0DZYHjiDjr_08N4e-1">
          <mxGeometry x="80" y="100" width="160" height="80" as="geometry" />
        </mxCell>
        <mxCell id="K24L0DZYHjiDjr_08N4e-8" value="From&lt;br style=&quot;font-size: 19px;&quot;&gt;Survivor" style="rounded=0;whiteSpace=wrap;html=1;fillColor=#6d8764;strokeColor=#3A5431;fontColor=#ffffff;fontSize=19;" vertex="1" parent="K24L0DZYHjiDjr_08N4e-1">
          <mxGeometry x="240" y="100" width="80" height="80" as="geometry" />
        </mxCell>
        <mxCell id="K24L0DZYHjiDjr_08N4e-10" value="To&lt;br style=&quot;font-size: 20px;&quot;&gt;Survivor" style="rounded=0;whiteSpace=wrap;html=1;fillColor=#008a00;strokeColor=#005700;fontColor=#ffffff;fontSize=20;" vertex="1" parent="K24L0DZYHjiDjr_08N4e-1">
          <mxGeometry x="320" y="100" width="80" height="80" as="geometry" />
        </mxCell>
        <mxCell id="K24L0DZYHjiDjr_08N4e-11" value="老年代" style="rounded=0;whiteSpace=wrap;html=1;fillColor=#a0522d;strokeColor=#6D1F00;fontColor=#ffffff;fontSize=20;" vertex="1" parent="K24L0DZYHjiDjr_08N4e-1">
          <mxGeometry x="400" y="100" width="120" height="80" as="geometry" />
        </mxCell>
        <mxCell id="K24L0DZYHjiDjr_08N4e-13" value="" style="endArrow=classic;startArrow=classic;html=1;strokeWidth=3;fontSize=17;" edge="1" parent="K24L0DZYHjiDjr_08N4e-1">
          <mxGeometry width="50" height="50" relative="1" as="geometry">
            <mxPoint x="80" y="198" as="sourcePoint" />
            <mxPoint x="240" y="198" as="targetPoint" />
          </mxGeometry>
        </mxCell>
        <mxCell id="K24L0DZYHjiDjr_08N4e-17" value="Eden" style="edgeLabel;html=1;align=center;verticalAlign=middle;resizable=0;points=[];fontSize=20;" vertex="1" connectable="0" parent="K24L0DZYHjiDjr_08N4e-13">
          <mxGeometry x="-0.125" y="-2" relative="1" as="geometry">
            <mxPoint as="offset" />
          </mxGeometry>
        </mxCell>
        <mxCell id="K24L0DZYHjiDjr_08N4e-14" value="s0" style="endArrow=classic;startArrow=classic;html=1;strokeWidth=3;fontSize=18;" edge="1" parent="K24L0DZYHjiDjr_08N4e-1">
          <mxGeometry width="50" height="50" relative="1" as="geometry">
            <mxPoint x="240" y="198" as="sourcePoint" />
            <mxPoint x="320" y="198" as="targetPoint" />
            <Array as="points">
              <mxPoint x="280" y="198" />
            </Array>
          </mxGeometry>
        </mxCell>
        <mxCell id="K24L0DZYHjiDjr_08N4e-18" value="新生代" style="endArrow=classic;startArrow=classic;html=1;strokeColor=#001DBC;strokeWidth=1;shape=flexArrow;fillColor=#0050ef;fontSize=18;" edge="1" parent="K24L0DZYHjiDjr_08N4e-1">
          <mxGeometry width="50" height="50" relative="1" as="geometry">
            <mxPoint x="80" y="239.5" as="sourcePoint" />
            <mxPoint x="400" y="239.5" as="targetPoint" />
          </mxGeometry>
        </mxCell>
        <mxCell id="K24L0DZYHjiDjr_08N4e-19" value="老年代" style="endArrow=classic;startArrow=classic;html=1;strokeColor=#001DBC;strokeWidth=1;shape=flexArrow;fillColor=#0050ef;fontSize=18;" edge="1" parent="K24L0DZYHjiDjr_08N4e-1">
          <mxGeometry width="50" height="50" relative="1" as="geometry">
            <mxPoint x="400" y="239.5" as="sourcePoint" />
            <mxPoint x="520" y="240" as="targetPoint" />
          </mxGeometry>
        </mxCell>
        <mxCell id="K24L0DZYHjiDjr_08N4e-20" value="分代收集算法" style="endArrow=classic;startArrow=classic;html=1;strokeColor=#B09500;strokeWidth=1;fillColor=#e3c800;shape=flexArrow;fontSize=18;" edge="1" parent="K24L0DZYHjiDjr_08N4e-1">
          <mxGeometry width="50" height="50" relative="1" as="geometry">
            <mxPoint x="80" y="290" as="sourcePoint" />
            <mxPoint x="520" y="290" as="targetPoint" />
          </mxGeometry>
        </mxCell>
        <mxCell id="K24L0DZYHjiDjr_08N4e-16" value="s1" style="endArrow=classic;startArrow=classic;html=1;strokeWidth=3;fontSize=18;" edge="1" parent="1">
          <mxGeometry width="50" height="50" relative="1" as="geometry">
            <mxPoint x="401" y="308" as="sourcePoint" />
            <mxPoint x="481" y="308" as="targetPoint" />
            <Array as="points">
              <mxPoint x="441" y="308" />
            </Array>
          </mxGeometry>
        </mxCell>
      </root>
    </mxGraphModel>
  </diagram>
</mxfile>
